<svg xmlns='http://www.w3.org/2000/svg' width='400' height='400'>
      <defs><style>.cls-path-cs3-male-5R{clip-path:url(#clip-path-cs3-male-5R)}.cls-path-cs3-male-5L{clip-path:url(#clip-path-cs3-male-5L)}.cls-multipy{mix-blend-mode: multiply;}.cls-softlight{mix-blend-mode: soft-light;}.cls-overlay{mix-blend-mode: overlay;}.cls-colorburn{mix-blend-mode: color-burn;}.cls-screen{mix-blend-mode: screen;}.cls-lighten{ mix-blend-mode: darken;}</style>
      </defs><path fill="#c37765" d="M393.17,400H6.83s4.5-20,5.25-24.64S136.62,325.91,139,324c1.47-1.21,3.35-27.08,4.52-45.79.67-10.75,1.12-19.13,1.12-19.13H255.42s1.41,27,3.05,46.2c.85,10.12,1.78,18.06,2.58,18.72,2.33,1.91,126.12,46.68,126.87,51.36S393.17,400,393.17,400Z" class="canChange" style="fill:null"></path><path fill="#d177b8" opacity="0.44" d="M258.47,305.28c-5.58.62-14.35,2.15-20.11,5.88-9.05,5.85-20.63,31.31-38.47,30.54s-40.48-48.61-44-55c-2.07-3.73-7.91-6.7-12.41-8.51.67-10.75,1.12-19.13,1.12-19.13H255.42S256.83,286.09,258.47,305.28Z" class="cls-multipy"></path><path fill="#c37765" d="M280.58,163.11s12.05-18.35,20.22-18.31c5,0,17,10.47,16.84,20.44-.18,13.35-12,28.5-14.94,36.28s-10.56,17.92-15.63,18.9-11.67-8.62-11.67-8.62S277.86,175.21,280.58,163.11Z" class="canChange" style="fill:null"></path><path fill="#d177b8" opacity="0.44" d="M281.47,182.64s19.78-24.43,27-24.43,7.19,13.9,4.29,21.83c-2,5.49-5.93,13.43-5.93,13.43s3.1-8.53,3.48-14.9c.57-9.81-1.61-16.94-4.09-16.93-4.55,0-8.14,6.26-8.71,8.47s3.6,11.89,2.49,18.64-5.15,9.32-6.5,8.58.74-8.34-.49-11-4.78-6.62-6.86-5.76S281.47,182.64,281.47,182.64Z" class="cls-multipy"></path><path fill="#d177b8" opacity="0.44" d="M281.47,182.64s4.88-2.91,6.36-2,5.25,4.32,5.4,6.45-1.19,8.19,0,9.24,5.5-5.78,5.69-11.81-3.19-13-3.19-13.82.79-4.69.79-4.69S285,176.91,281.47,182.64Z" class="cls-multipy"></path><path fill="#c37765" d="M119.42,163.11s-12-18.35-20.22-18.31c-5,0-17,10.47-16.84,20.44.18,13.35,12,28.5,14.94,36.28s10.56,17.92,15.63,18.9,11.67-8.62,11.67-8.62S122.14,175.21,119.42,163.11Z" class="canChange" style="fill:null"></path><path fill="#d177b8" opacity="0.44" d="M118.53,182.64s-19.78-24.43-27-24.43-7.19,13.9-4.29,21.83c2,5.49,5.93,13.43,5.93,13.43s-3.1-8.53-3.48-14.9c-.57-9.81,1.61-16.94,4.09-16.93,4.55,0,8.14,6.26,8.71,8.47S98.91,182,100,188.75s5.15,9.32,6.5,8.58-.74-8.34.49-11,4.78-6.62,6.86-5.76S118.53,182.64,118.53,182.64Z" class="cls-multipy"></path><path fill="#d177b8" opacity="0.44" d="M118.53,182.64s-4.88-2.91-6.36-2-5.25,4.32-5.4,6.45,1.19,8.19,0,9.24-5.5-5.78-5.69-11.81,3.19-13,3.19-13.82-.79-4.69-.79-4.69S115,176.91,118.53,182.64Z" class="cls-multipy"></path><path fill="#c38273" d="M285.46,133c0,.55,0,1.11,0,1.66,0,1.69,0,3.36-.07,5q0,1.62-.06,3.21c0,.19,0,.39,0,.59,0,.88,0,1.74-.06,2.6,0,.13,0,.26,0,.39,0,.92-.05,1.83-.08,2.73s-.06,1.9-.08,2.83a1.28,1.28,0,0,0,0,.19l-2.39,20.93s-.24,7.37-1,17.53c-1.43,19.9-4.73,50.53-11.77,57.48-2.73,2.7-6.24,5.64-10.18,8.85l-.69.56c-10.59,8.61-24,19.12-33.67,32-.65.86-1.27,1.73-1.88,2.61,0,0-11.86,7.77-22.26,1.94-.41-.23-.82-.48-1.23-.76-.36.24-.73.47-1.09.68-10.44,6-22.4-1.86-22.4-1.86q-.91-1.33-1.89-2.61C165.84,278,154,269.82,144.08,262.76l-2-1.39a96.5,96.5,0,0,1-11.42-9.13c-5.54-5.47-8.7-26.58-10.46-45.56-.15-1.65-.29-3.28-.42-4.88,0,0,0-.07,0-.11a259.2,259.2,0,0,0-3.46-26.3,0,0,0,0,1,0,0v0l-.3-2.78-.09-.94c-1.31-14.4-2.94-70.74,1.3-82.2S171.87,47.24,200,47.24c19.74,0,50.45,15.13,68.45,28.13,7.65,5.51,13,10.64,14.28,14C285,95.53,285.6,114.48,285.46,133Z" class="canChange" style="fill:null"></path><path fill="#d177b8" opacity="0.4" d="M285.46,133c0,.55,0,1.11,0,1.66,0,1.69,0,3.36-.07,5q0,1.62-.06,3.21c0,.19,0,.39,0,.59,0,.88,0,1.74-.06,2.6,0,.13,0,.26,0,.39,0,.92-.05,1.83-.08,2.73s-.06,1.91-.08,2.83a1.28,1.28,0,0,0,0,.19l-2.39,20.93s-.24,7.37-1,17.53c-1.43,19.9-4.73,50.53-11.77,57.48-2.73,2.7-6.24,5.64-10.18,8.85l-.69.56c3.1-16.62,6.92-42,9-49.88,3.34-12.48,7.43-29.21,7.43-29.21-1-7.13-7.07-7.13-7.07-7.13-19,10.37-46.74,1.79-46.74,1.79-3.32-15.75-2.16-43-2.16-43l.75-5.34,51.48-2.53s-4.58-11-4.17-17.66,2.86-24.47.84-29.19c7.65,5.51,13,10.64,14.28,14C285,95.53,285.6,114.48,285.46,133Z" class="cls-multipy"></path><path fill="#d177b8" opacity="0.4" d="M178.32,173.13s-27.73,8.58-46.75-1.79c0,0-6.11,0-7.07,7.13,0,0,4.1,16.73,7.44,29.21,2.18,8.13,8.32,37.7,12.14,55.08l-2-1.39a96.5,96.5,0,0,1-11.42-9.13c-5.54-5.47-8.7-26.58-10.46-45.56a15.24,15.24,0,0,0-.42-4.88c-.06-.23-.13-.45-.2-.67-1-8.69-2.34-17.08-3.27-25.74a0,0,0,0,1,0,0c-.14-1.24-.26-2.49-.38-3.75-1.3-14.4-2.93-70.74,1.32-82.2,1.27-3.4,6.63-8.53,14.28-14-2,4.72.42,22.48.84,29.19s-4.16,17.66-4.16,17.66l51.48,2.53.75,5.34S181.63,157.38,178.32,173.13Z" class="cls-multipy"></path><path fill="#d177b8" opacity="0.6" d="M201.26,294.14c-.41-.23-.82-.48-1.23-.76-.36.24-.73.47-1.09.68-.12-4.74,0-12.51,2.06-17.32C201,276.74,199.13,287.69,201.26,294.14Z" class="cls-multipy"></path><path fill="#5d2750" d="M182.46,40.79s-17.28-9.41-21.4-16.71,6.18-16.49,6.18-16.49-4.49,5.06-4.49,9.37c0,0,17.14-13.67,36.48-13.86s34.13,15.55,34.13,15.55-1.12,10.88-18.17,21.54Z" class="canChange" style="fill:rgb(11, 6, 2)"></path><path fill="#839af2" d="M174.9,43.46s13.72-9.16,23.67-9.16,25,9.7,25,9.7Z"></path><path fill="#5d2750" d="M114.94,153.66s3.79-10.22,8.54-23,3.9-48.35,3.9-48.35-10.2,6.83-13.3,12.23S114.94,153.66,114.94,153.66Z" class="canChange" style="fill:rgb(11, 6, 2)"></path><path fill="#5d2750" d="M285.71,153.66l-8.54-23c-4.75-12.74-3.9-48.35-3.9-48.35s10.2,6.83,13.29,12.23S285.71,153.66,285.71,153.66Z" class="canChange" style="fill:rgb(11, 6, 2)"></path><path fill="#5d2750" d="M285.77,93.36s-1.66-1.25-14.77-5.18a142.38,142.38,0,0,1-24.71-10.36H153.57s-11.31,5.5-20.88,9.29h0c-1,.42-2.06.81-3,1.19-2.27.83-4.35,1.52-6,1.94-8.72,2.17-10.59,6.05-10.71,6.28-.08-.29-1.66-7.85,0-12.16a3.22,3.22,0,0,1,.21-.41c.8-1.29,3.13-3.36,6.17-5.69l.62-.48c2.78-2.11,6.09-4.43,9.27-6.6,5.85-4,11.33-7.46,12.65-8.31l.32-.19s-1.11-.79,3-4.59a17.62,17.62,0,0,1,2.36-1.72c.85-.57,1.89-1.21,3.1-1.88l.06,0a149.85,149.85,0,0,1,19.87-9.37c.43-.18.89-.34,1.32-.51l.32-.12c3.06-1.15,6.19-2.2,9.31-3.09a0,0,0,0,0,0,0l1.39-.37a5.69,5.69,0,0,1,.59-.16,59.9,59.9,0,0,1,14.87-2.25,61,61,0,0,1,15.12,2.23l0,0h0a.37.37,0,0,1,.14,0C229.41,45,244.89,53.58,246.84,55.4A13.81,13.81,0,0,1,250.4,61s6,3.49,10.88,6.52l0,0,1.06.65a49,49,0,0,1,5.08,3.42s4.39,2.93,9.08,6.19c5.24,3.62,10.87,7.63,11.23,8.38C288.42,87.63,285.77,93.36,285.77,93.36Z" class="canChange" style="fill:rgb(11, 6, 2)"></path><path fill="#ffeadb" d="M129.62,88.3c-2.27.83-4.35,1.52-6,1.94-8.72,2.17-10.59,6.05-10.71,6.28-.08-.29-1.66-7.85,0-12.16a3.22,3.22,0,0,1,.21-.41,11.3,11.3,0,0,1,1.51-.26C120.05,83.12,129.62,88.3,129.62,88.3Z" class="cls-multipy"></path><path fill="#d177f4" d="M285.77,93.36s-1.66-1.25-14.77-5.18a142.38,142.38,0,0,1-24.71-10.36H153.57s-11.31,5.5-20.88,9.29h0c-4.61-5.75-13.39-8.85-13.39-8.85l.62-.48s7.86,3.38,11.66,3.62a11.71,11.71,0,0,0,6.64-1.7c-4.29-2.1-9.23-8.19-9.23-8.19l.2-.33s4.92,5.57,9.33,6.15a13,13,0,0,0,7.67-1.41c-4.59-3.75-4.76-12.75-4.76-12.75l.41-.3.32-.19c.53,4.68,3.85,9.09,4.27,9.62-3.78-7.77,1.09-15.93,1.09-15.93l3.1-1.88.06,0s-6.45,8.07-3.2,16.06,34.2,3.71,34.2,3.71S166.5,73.39,163,65.33c-3.37-7.77,6.8-19.46,7.49-20.25l0,0,1.28-.47.32-.12c-7.43,6.26-11.66,18.64-3.42,23.68s20.32,4.69,20.32,4.69-12.45-6.47-13.86-12.91,5.86-17.87,6.27-18.55a0,0,0,0,0,0,0l1.39-.37.61-.18,0,0c-.46.57-8.5,10.7-6.57,18.58,2,8.13,16.87,12.62,26.62,14.38s22.59,1.1,22.59,1.1,5.38-10,3.37-19.47c-1.82-8.56-13.41-13.56-15.64-14.47,2.31.87,14.82,5.93,17.14,15.34,2.55,10.4-2.87,19.73-2.87,19.73,7.36.52,23.09-1.24,23.09-1.24,1.07-5.46-.63-13-.79-13.69,2.3,6.31,3.17,16.37,3.17,16.37,1.87,1.31,9,4.26,9,4.26,1.78-11.08-1.07-13.9-1.34-14.14l1.06.65a29.64,29.64,0,0,1,1.84,15.44A40.35,40.35,0,0,0,277.94,85c.56-3-1.42-7.18-1.42-7.18,5.24,3.62,10.87,7.63,11.23,8.38C288.42,87.63,285.77,93.36,285.77,93.36Z" class="cls-multipy"></path><path fill="#8c4d7d" d="M209.22,36.72s4.48-26.27,12-31.14c0,0,9,2.81,12.17,9.18s-2.83,10.89-2.83,10.89,4.58-4.27,2.83-9c-.88-2.37-4.56-2-4.56-2s-13.86,12.87-18.42,22.48Z"></path><path fill="#8c4d7d" d="M184.93,38a320.8,320.8,0,0,0-10-31.08s-5.59,1.5-7.22,2.81-1.69,5-1.69,5,.63-3.2,2.25-3.45,15.45,27.36,15.45,27.36Z"></path><path fill="#8c4d7d" d="M223.56,44s25,3.79,35.4,11.4c7.25,5.33-2.18,26.95-2.18,26.95l-3.28-.93s6.13-15.83,1.34-23c-3.12-4.67-12.86-11.54-24.38-10.88Z"></path><path fill="#8c4d7d" d="M148.52,80.21s-14.43-10.2-15.36-17,12-5.09,12-5.09L146.51,57S131,54.94,127.43,62.52s18.23,19,18.23,19Z"></path><path fill="#8c4d7d" d="M157.22,77.82s-10.39-21-3.65-28.29,21.33-6.07,21.33-6.07-15,.24-19.27,8.57,6.18,25.79,6.18,25.79Z"></path><path fill="#ffd9bb" opacity="0.5" d="M180.25,45.61a34.69,34.69,0,0,0-3.45,9s.58-1.55,1.73-1.8,11.17.89,25,1.8,22.16-2,23.71-1.61,2.34,3.16,2.34,3.16A12.73,12.73,0,0,0,225.08,48s1,1.09.67,1.34-17.42-.75-27.54-.13-17.46-1.77-18-2.18S180.25,45.61,180.25,45.61Z" class="cls-softlight"></path><path fill="#ffd9bb" opacity="0.5" d="M227.32,49.64a41.35,41.35,0,0,0,5.29,3.83c1.69.81,10.54,1.87,11.55,1.31l1-.56s3.57,2.21,4.52,5.1a17.54,17.54,0,0,0-8.53-2.79c-4.69-.13-7.81.06-7.81.06S229.55,51.26,227.32,49.64Z" class="cls-softlight"></path><path fill="#ffd9bb" opacity="0.5" d="M172.77,56.13s1.56-5.38,4-8.12c0,0-3.19,1.2-5,1.63a8,8,0,0,1-3.46,0,18.53,18.53,0,0,0-3.92,7.85S170.42,55.41,172.77,56.13Z" class="cls-softlight"></path><path d="M217.88,126.48s-2.41,9.59-1,12.63,39.87-16.19,45.37-14.27a23.08,23.08,0,0,1,8,4.35s-.15-14.74-7.78-14.83S217.88,126.48,217.88,126.48Z" class="canChange" style="fill:null"></path><path d="M179.2,126.48s2.4,9.59,1,12.63-39.87-16.19-45.36-14.27a23.08,23.08,0,0,0-8,4.35s.15-14.74,7.78-14.83S179.2,126.48,179.2,126.48Z" class="canChange" style="fill:null"></path><path fill="#242424" d="M269.32,151.43s6.62,1.52,9.07,1.19l-6.25,4.66-4.78,13h2.2s-14.51,3.67-21.1,2.94-26.5-5.25-26.5-5.25,4.82-16.92,23.58-17.6S269.32,151.43,269.32,151.43Z"></path><path fill="#e4e5f9" d="M272.14,154.56s-.81,2.65-1.85,5.79c-1.44,4.3-3.31,9.55-4.16,10.23-1.47,1.19-29.42,5.68-45.48,0a31.11,31.11,0,0,1,3.37-5.92c4-5.61,11.74-13.18,24.7-13.23C269.32,151.34,272.14,154.56,272.14,154.56Z"></path><g class="cls-path-cs3-male-15R show"><ellipse fill="#6a518a" cx="244.91" cy="158.52" rx="13.61" ry="13.66" transform="translate(-18.08 284.8) rotate(-58.56)"></ellipse><ellipse fill="#76719d" cx="244.91" cy="158.52" rx="12.81" ry="12.86" transform="translate(-17.99 284.99) rotate(-58.6)"></ellipse><ellipse fill="#724a60" cx="244.91" cy="158.52" rx="8.31" ry="8.34" transform="translate(-18.08 284.79) rotate(-58.56)" class="cls-multipy canChange" style="fill:null"></ellipse></g><path fill="#d177b8" opacity="0.6" d="M272.14,154.56s-.81,2.65-1.85,5.79c-17.38-3.85-35.23.47-46.27,4.31,4-5.61,11.74-13.18,24.7-13.23C269.32,151.34,272.14,154.56,272.14,154.56Z" class="cls-multipy"></path><path fill="#fff" d="M255.55,161.91c-.89.62,3.22.77,6.29-.18,2.75-.84,4.07-2.23,3.81-2.48S259.05,159.47,255.55,161.91Z"></path><path fill="#fff" d="M253.21,162.53c-1.16-.31-2.53.16-2.58.65s1.39,1.09,2.06.89S253.86,162.7,253.21,162.53Z"></path><path fill="#242424" d="M130.68,151.43s-6.62,1.52-9.07,1.19l6.25,4.66,4.78,13h-2.2s14.51,3.67,21.1,2.94,26.5-5.25,26.5-5.25-4.82-16.92-23.58-17.6S130.68,151.43,130.68,151.43Z"></path><path fill="#e4e5f9" d="M127.86,154.56s.81,2.65,1.85,5.79c1.44,4.3,3.31,9.55,4.16,10.23,1.47,1.19,29.42,5.68,45.48,0a31.11,31.11,0,0,0-3.37-5.92c-4-5.61-11.74-13.18-24.7-13.23C130.68,151.34,127.86,154.56,127.86,154.56Z"></path><g class="cls-path-cs3-male-15L show"><ellipse fill="#6a518a" cx="155.09" cy="158.52" rx="13.66" ry="13.61" transform="translate(-59.91 104.16) rotate(-31.44)"></ellipse><ellipse fill="#76719d" cx="155.09" cy="158.52" rx="12.86" ry="12.81" transform="translate(-59.87 104.01) rotate(-31.4)"></ellipse><ellipse fill="#724a60" cx="155.09" cy="158.52" rx="8.34" ry="8.31" transform="translate(-59.91 104.16) rotate(-31.44)" class="cls-multipy canChange" style="fill:null"></ellipse></g><path fill="#d177b8" opacity="0.6" d="M127.86,154.56s.81,2.65,1.85,5.79c17.38-3.85,35.23.47,46.27,4.31-4-5.61-11.74-13.18-24.7-13.23C130.68,151.34,127.86,154.56,127.86,154.56Z" class="cls-multipy"></path><path fill="#fff" d="M144.45,161.91c.89.62-3.22.77-6.29-.18-2.75-.84-4.07-2.23-3.81-2.48S141,159.47,144.45,161.91Z"></path><path fill="#fff" d="M146.79,162.53c1.16-.31,2.53.16,2.58.65s-1.39,1.09-2.06.89S146.14,162.7,146.79,162.53Z"></path><path fill="#852442" d="M174.07,233.15a102.58,102.58,0,0,0,11.61-2c18.1-3.93,28.37-6.26,34.85-8.87a34.29,34.29,0,0,0,11.24-7.94s-9.29,11.85-24.67,16C188.54,235.33,174.07,233.15,174.07,233.15Z"></path><path fill="#742637" d="M174.07,233.15a102.58,102.58,0,0,0,11.61-2c18.1-3.93,28.37-6.26,34.85-8.87a34.29,34.29,0,0,0,11.24-7.94s-9.29,11.85-24.67,16C188.54,235.33,174.07,233.15,174.07,233.15Z"></path><path fill="#ba7070" d="M169.81,233s7.84,8.68,17.38,9.57,25.22-.88,33.6-8.24,10.59-18.38,10.59-18.38-8.47,9.74-25.56,14.77S169.81,233,169.81,233Z" class="canChange" style="fill:null"></path><path fill="#430128" d="M166.55,232.41s17.26,3.57,35.14,0S232,215.3,232,215.3l1.42.6-1.61-5.31v3.76a59.45,59.45,0,0,1-30.56,17.19C184.83,235.17,166.55,232.41,166.55,232.41Z"></path><path fill="#ffd9d9" d="M215.91,237.58l-4.82-7.32s10.06-4.24,15-8.6l3.15.63S225.27,233.05,215.91,237.58Z" class="cls-softlight"></path><path fill="#b86e51" opacity="0.5" d="M215.91,237.58s11-12.36,13.33-15.29C229.24,222.29,227.14,231.83,215.91,237.58Z" class="cls-softlight"></path><path fill="#d3e38d" d="M393.17,400H6.83s4.51-20,5.25-24.64c.12-.74,3.3-2.47,8.58-4.88,17.47-8,58-23.29,86.69-34.17l2.34-.88,1.17-.42a14.35,14.35,0,0,0,1.58-.63,1,1,0,0,0,.45-.41,3.59,3.59,0,0,1,.6-1.16c.55-.68,2,.41,2.81.11l8.23-3.13,2.41-.93,5.33-2.06,1.41-.55.95-.38c4,4.9,9.63,9.26,16.59,12.87,12.79,6.63,29.94,10.69,48.78,10.69,25.81,0,48.44-7.61,61.06-19a40.55,40.55,0,0,0,4.31-4.53c3.57,1.42,9.15,3.56,16,6.17l1.61.61,3.33,1.27h0c36.87,14,101,38.07,101.58,41.44.38,2.34,1.69,8.48,2.91,14.07S393.17,400,393.17,400Z" class="canChange" style="fill:rgb(8, 5, 1)"></path><path fill="#d177b8" opacity="0.36" d="M200.4,327s-2.55.17-6.82.25l-1.32-.45h.09C195,327,197.69,327.05,200.4,327Z" class="cls-multipy"></path><path fill="#d077b7" opacity="0.32" d="M393.17,400H368.41c11.63-3.28,18.81-6.83,22.42-10.57C392.05,395,393.17,400,393.17,400Z" class="cls-multipy"></path><path fill="#d177b8" opacity="0.36" d="M112.9,334s17.63,17.56,32.39,21.95c-8.77-2.12-30-8.45-34.43-20.92a14.35,14.35,0,0,0,1.58-.63,1,1,0,0,0,.45-.41Z" class="cls-multipy"></path><path fill="#ff918a" d="M149.1,356.77a24,24,0,0,1-3.81-.84C147.64,356.5,149.1,356.77,149.1,356.77Z"></path><path fill="#d177b8" opacity="0.36" d="M151.22,338.74c-7.62,2.2-15.79,4.65-24.12,7.27l-4.32,1.37C84.27,359.7,44,375.41,42,387.75A68,68,0,0,0,41.12,400H6.83s4.51-20,5.25-24.64c.12-.74,3.3-2.47,8.58-4.88,17.47-8,58-23.29,86.69-34.17l2.34-.88,1.17-.42a14.35,14.35,0,0,0,1.58-.63,1,1,0,0,0,.45-.41,3.59,3.59,0,0,1,.6-1.16c.55-.68,2,.41,2.81.11l8.23-3.13,2.41-.93,5.33-2.06,1.41-.55.95-.38C138.59,330.77,144.26,335.13,151.22,338.74Z" class="cls-multipy"></path><path fill="#d177b8" opacity="0.36" d="M393.17,400h-43.3c-1-4.2-2.11-9.06-3.11-14.47-2.65-14.37-57.05-41.68-85.7-55.14a40.55,40.55,0,0,0,4.31-4.53c3.57,1.42,9.15,3.56,16,6.17l1.61.61,3.33,1.27h0c36.87,14,101,38.07,101.58,41.44.38,2.34,1.69,8.48,2.91,14.07S393.17,400,393.17,400Z" class="cls-multipy"></path><path fill="#d177b8" opacity="0.6" d="M220.2,197.05s-.08,2.65-1.09,3.17-2.72-2.16-4.69-1-3.87,10.6-14.42,10.6-13-9.32-14.94-10.49-3.17,1.38-4.17.87-1.09-3.17-1.09-3.17l0,3.52s1.81-1.75,7.74,6.49c9.87,13.72,18.63,8.66,25,0,6-8.16,7.74-6.49,7.74-6.49Z" class="canChange cls-multipy" style="fill:null"></path><path fill="#dd93f4" opacity="0.6" d="M215.84,188.7s-.83-1.4-1.83-.79-1.64,12.22-1.64,12.22-1.46-12.47,0-15.69A12.1,12.1,0,0,1,215.84,188.7Z" class="canChange cls-multipy" style="fill:null"></path><path fill="#dd93f4" opacity="0.6" d="M184,188.7s.83-1.4,1.84-.79,1.63,12.22,1.63,12.22,1.46-12.47,0-15.69A12.22,12.22,0,0,0,184,188.7Z" class="canChange cls-multipy" style="fill:null"></path><path fill="#401a35" opacity="0.6" d="M210.73,204.93s3.24-3.74,4.51-4.36,3.76.5,3.76.5a11.56,11.56,0,0,0-2.77,1.48C214.9,203.55,212.26,205.08,210.73,204.93Z" class="cls-multipy"></path><path fill="#401a35" opacity="0.6" d="M181.83,201.5s1.19-1.9,3-1.44,4.19,4.88,4.19,4.88-2.57-1-4-1.69S181.83,201.5,181.83,201.5Z" class="cls-multipy"></path></svg>